<mxfile host="65bd71144e">
    <diagram id="b6uoNwuYPiQxgnyS5Rox" name="Page-1">
        <mxGraphModel dx="1027" dy="847" grid="1" gridSize="10" guides="1" tooltips="1" connect="1" arrows="1" fold="1" page="1" pageScale="1" pageWidth="1169" pageHeight="827" math="0" shadow="0">
            <root>
                <mxCell id="0"/>
                <mxCell id="1" parent="0"/>
                <mxCell id="23" value="&lt;font style=&quot;font-size: 18px&quot;&gt;Fetch data&lt;/font&gt;" style="edgeStyle=none;html=1;fontSize=24;" parent="1" source="19" edge="1">
                    <mxGeometry relative="1" as="geometry">
                        <mxPoint x="165" y="360" as="targetPoint"/>
                    </mxGeometry>
                </mxCell>
                <mxCell id="19" value="&lt;font style=&quot;font-size: 24px&quot;&gt;Google Sheet&lt;/font&gt;" style="whiteSpace=wrap;html=1;fontSize=18;" parent="1" vertex="1">
                    <mxGeometry x="40" y="80" width="250" height="100" as="geometry"/>
                </mxCell>
                <mxCell id="20" value="" style="strokeWidth=2;html=1;shape=mxgraph.flowchart.database;whiteSpace=wrap;fontSize=24;" parent="1" vertex="1">
                    <mxGeometry x="20" y="40" width="60" height="60" as="geometry"/>
                </mxCell>
                <mxCell id="27" style="edgeStyle=none;html=1;fontSize=18;" parent="1" source="22" edge="1">
                    <mxGeometry relative="1" as="geometry">
                        <mxPoint x="410" y="480" as="targetPoint"/>
                    </mxGeometry>
                </mxCell>
                <mxCell id="22" value="NextJS App&lt;br&gt;&lt;font style=&quot;font-size: 18px&quot;&gt;(e-commerce store)&lt;/font&gt;" style="whiteSpace=wrap;html=1;fontSize=24;" parent="1" vertex="1">
                    <mxGeometry x="40" y="340" width="260" height="130" as="geometry"/>
                </mxCell>
                <mxCell id="26" value="Places an order" style="edgeStyle=none;html=1;entryX=1;entryY=0.5;entryDx=0;entryDy=0;fontSize=18;" parent="1" source="24" target="22" edge="1">
                    <mxGeometry relative="1" as="geometry"/>
                </mxCell>
                <mxCell id="24" value="" style="shape=actor;whiteSpace=wrap;html=1;fontSize=18;" parent="1" vertex="1">
                    <mxGeometry x="460" y="150" width="40" height="50" as="geometry"/>
                </mxCell>
                <mxCell id="30" value="order confirmed (user clicked on the link)" style="edgeStyle=none;html=1;fontSize=18;" parent="1" source="28" edge="1">
                    <mxGeometry relative="1" as="geometry">
                        <mxPoint x="575" y="630" as="targetPoint"/>
                    </mxGeometry>
                </mxCell>
                <mxCell id="28" value="Send confirmation link to user's mail acc" style="whiteSpace=wrap;html=1;fontSize=18;" parent="1" vertex="1">
                    <mxGeometry x="420" y="450" width="310" height="60" as="geometry"/>
                </mxCell>
                <mxCell id="31" value="Add new entry to the 'Orders' list in the Gsheet" style="whiteSpace=wrap;html=1;fontSize=18;" parent="1" vertex="1">
                    <mxGeometry x="550" y="640" width="180" height="100" as="geometry"/>
                </mxCell>
                <mxCell id="34" value="Receive a PN&lt;br&gt;(Slack)" style="whiteSpace=wrap;html=1;fontSize=18;" parent="1" vertex="1">
                    <mxGeometry x="740" y="640" width="180" height="100" as="geometry"/>
                </mxCell>
                <mxCell id="36" value="Please click on the below link to confirm your order&lt;br&gt;&lt;br&gt;ourapp.com/api/confirm-order/?orderId=01823md0qsd" style="whiteSpace=wrap;html=1;fontSize=18;" parent="1" vertex="1">
                    <mxGeometry x="780" y="450" width="370" height="130" as="geometry"/>
                </mxCell>
            </root>
        </mxGraphModel>
    </diagram>
</mxfile>